<?xml version="1.0" standalone="no"?><!DOCTYPE svg PUBLIC "-//W3C//DTD SVG 1.1//EN" "http://www.w3.org/Graphics/SVG/1.1/DTD/svg11.dtd"><svg t="1626959898164" class="icon" viewBox="0 0 1024 1024" version="1.1" xmlns="http://www.w3.org/2000/svg" p-id="10430" xmlns:xlink="http://www.w3.org/1999/xlink" width="200" height="200"><defs><style type="text/css">* { text-shadow: transparent 0px 0px 0px, rgba(0, 0, 0, 0.8) 0px 0px 0px !important; }
@font-face { font-family: feedback-iconfont; src: url("//at.alicdn.com/t/font_1031158_1uhr8ri0pk5.eot?#iefix") format("embedded-opentype"), url("//at.alicdn.com/t/font_1031158_1uhr8ri0pk5.woff2") format("woff2"), url("//at.alicdn.com/t/font_1031158_1uhr8ri0pk5.woff") format("woff"), url("//at.alicdn.com/t/font_1031158_1uhr8ri0pk5.ttf") format("truetype"), url("//at.alicdn.com/t/font_1031158_1uhr8ri0pk5.svg#iconfont") format("svg"); }
</style></defs><path d="M0.768 512c2.304-169.472 31.744-309.76 117.76-393.4208C202.24 32.512 342.528 3.072 512 0.768c169.472 2.304 309.76 31.744 393.4208 117.76C991.488 202.24 1020.928 342.528 1023.232 512c-2.304 169.472-31.744 309.76-117.76 393.4208C821.76 991.488 681.472 1020.928 512 1023.232c-169.472-2.304-309.76-31.744-393.4208-117.76C32.512 821.76 3.072 681.472 0.768 512z m340.1728 248.9344c30.6688 0 55.7568-25.088 55.7568-55.7568v-256.512c0-30.6688-25.088-55.7568-55.7568-55.7568s-55.7056 25.088-55.7056 55.7568v256.512c0 30.72 25.088 55.7568 55.7056 55.7568z m197.632 0c30.6176 0 55.7056-25.088 55.7056-55.7568V340.992c0-30.6688-25.088-55.7056-55.7568-55.7056S482.816 310.272 482.816 340.9408v364.2368c0 30.72 25.088 55.7568 55.808 55.7568z m197.5296 0c30.6688 0 55.7568-25.088 55.7568-55.7568v-157.952c0-30.6688-25.088-55.7568-55.7568-55.7568s-55.7568 25.088-55.7568 55.7568v157.952c0 30.72 25.088 55.7568 55.7568 55.7568z" p-id="10431"></path></svg>