<?xml version="1.0" standalone="no"?><!DOCTYPE svg PUBLIC "-//W3C//DTD SVG 1.1//EN" "http://www.w3.org/Graphics/SVG/1.1/DTD/svg11.dtd"><svg t="1626959737991" class="icon" viewBox="0 0 1024 1024" version="1.1" xmlns="http://www.w3.org/2000/svg" p-id="7279" xmlns:xlink="http://www.w3.org/1999/xlink" width="200" height="200"><defs><style type="text/css">* { text-shadow: transparent 0px 0px 0px, rgba(0, 0, 0, 0.8) 0px 0px 0px !important; }
@font-face { font-family: feedback-iconfont; src: url("//at.alicdn.com/t/font_1031158_1uhr8ri0pk5.eot?#iefix") format("embedded-opentype"), url("//at.alicdn.com/t/font_1031158_1uhr8ri0pk5.woff2") format("woff2"), url("//at.alicdn.com/t/font_1031158_1uhr8ri0pk5.woff") format("woff"), url("//at.alicdn.com/t/font_1031158_1uhr8ri0pk5.ttf") format("truetype"), url("//at.alicdn.com/t/font_1031158_1uhr8ri0pk5.svg#iconfont") format("svg"); }
</style></defs><path d="M819.8 196.9C647.9 25 369.1 25 197.2 196.9s-171.9 450.7 0 622.7c171.9 171.9 450.7 171.9 622.7 0s171.9-450.8-0.1-622.7zM508.5 820.6c-33.6 0-61.1-27.5-61.1-61.1V569.3H257.3c-33.6 0-61.1-27.5-61.1-61.1s27.5-61.1 61.1-61.1h190.1V257c0-33.6 27.5-61.1 61.1-61.1s61.1 27.5 61.1 61.1v190.1h190.1c33.6 0 61.1 27.5 61.1 61.1s-27.5 61.1-61.1 61.1H569.6v190.1c0 33.7-27.5 61.2-61.1 61.2z" p-id="7280"></path></svg>