<?xml version="1.0" standalone="no"?><!DOCTYPE svg PUBLIC "-//W3C//DTD SVG 1.1//EN" "http://www.w3.org/Graphics/SVG/1.1/DTD/svg11.dtd"><svg t="1626960015080" class="icon" viewBox="0 0 1024 1024" version="1.1" xmlns="http://www.w3.org/2000/svg" p-id="15357" xmlns:xlink="http://www.w3.org/1999/xlink" width="200" height="200"><defs><style type="text/css">* { text-shadow: transparent 0px 0px 0px, rgba(0, 0, 0, 0.8) 0px 0px 0px !important; }
@font-face { font-family: feedback-iconfont; src: url("//at.alicdn.com/t/font_1031158_1uhr8ri0pk5.eot?#iefix") format("embedded-opentype"), url("//at.alicdn.com/t/font_1031158_1uhr8ri0pk5.woff2") format("woff2"), url("//at.alicdn.com/t/font_1031158_1uhr8ri0pk5.woff") format("woff"), url("//at.alicdn.com/t/font_1031158_1uhr8ri0pk5.ttf") format("truetype"), url("//at.alicdn.com/t/font_1031158_1uhr8ri0pk5.svg#iconfont") format("svg"); }
</style></defs><path d="M985.6 473.6 985.6 473.6l-256 256-256 256 0 0C454.4 1011.2 422.4 1024 384 1024c-38.4 0-70.4-12.8-89.6-38.4l0 0-256-256 0 0C12.8 710.4 0 678.4 0 640c0-38.4 12.8-70.4 38.4-89.6l0 0 256-256 256-256 0 0C569.6 12.8 601.6 0 640 0l256 0c70.4 0 128 57.6 128 128l0 256C1024 422.4 1011.2 454.4 985.6 473.6zM768 128c-70.4 0-128 57.6-128 128 0 70.4 57.6 128 128 128 70.4 0 128-57.6 128-128C896 185.6 838.4 128 768 128z" p-id="15358"></path></svg>